# xmcd CD database file
#
# Track frame offsets:
#	150
#	15076
#	30487
#	44439
#	57764
#	70070
#	83254
#	95703
#	106408
#	119533
#	129956
#	142078
#	156648
#	169490
#	181761
#	193933
#	217948
#	233125
#	247914
#	262306
#
# Disc length: 3898 seconds
#
# Revision: 0
# Processed by: cddbd v1.5.2PL0 Copyright (c) Steve Scherf et al.
# Submitted via: CDex 1.79
#
DISCID=150f3814
DTITLE=100 Hits Jazz - Cd 1
DYEAR=2012
DGENRE=Jazz
TTITLE0=T-Bone Walker-I Got a Break Baby
TTITLE1=Big Bill Bronzy-Friendless Blues
TTITLE2=Big Joe Turner-Doggin' The Blues
TTITLE3=Arthur "Big Boy" Crudup-Rock Me Mamma
TTITLE4=Mephis Slim-Blues at Midnight
TTITLE5=Hot Lips Page-Just Another Woman
TTITLE6=Leadbelly-Eagle Rock
TTITLE7=Sleepy John Estes-Mary Come on Home
TTITLE8=Blind Boy Fuller-Woman, I am Done
TTITLE9=Lightnin' Hopkins-You're Gonna Miss Me
TTITLE10=Johnny Dodds-Melancholy
TTITLE11=Henry "Red" Allen-Indiana
TTITLE12=Eddie Condon-Fidgety Feets
TTITLE13=Muggsy Spanier-Cherry
TTITLE14=Edmond Hall-It's Only a Chanty in Old Chanty Town
TTITLE15=Kid Ory-Maple Leaf Rag
TTITLE16=Will Bill Dawson-Jazz Me Blues
TTITLE17=Sindey Bechet-At a Giorgia Camp Meeting
TTITLE18=George Wettling's Dixielanders-After You're Gone
TTITLE19=Louis Armstrong-New Orleans Function
EXTD=YEAR: 2012
EXTT0=
EXTT1=
EXTT2=
EXTT3=
EXTT4=
EXTT5=
EXTT6=
EXTT7=
EXTT8=
EXTT9=
EXTT10=
EXTT11=
EXTT12=
EXTT13=
EXTT14=
EXTT15=
EXTT16=
EXTT17=
EXTT18=
EXTT19=
PLAYORDER=
